<svg xmlns="http://www.w3.org/2000/svg" viewBox="0 0 96 96">
  <g id="Group_17" data-name="Group 17" transform="translate(-36 -99)">
    <g id="Ellipse_10" data-name="Ellipse 10" transform="translate(36 99)" fill="none" stroke="#707070" stroke-width="1">
      <circle cx="48" cy="48" r="48" stroke="none"/>
      <circle cx="48" cy="48" r="47.5" fill="none"/>
    </g>
    <path id="Icon_awesome-plus" data-name="Icon awesome-plus" d="M35.1,17.1H22.95V4.95a2.7,2.7,0,0,0-2.7-2.7h-2.7a2.7,2.7,0,0,0-2.7,2.7V17.1H2.7A2.7,2.7,0,0,0,0,19.8v2.7a2.7,2.7,0,0,0,2.7,2.7H14.85V37.35a2.7,2.7,0,0,0,2.7,2.7h2.7a2.7,2.7,0,0,0,2.7-2.7V25.2H35.1a2.7,2.7,0,0,0,2.7-2.7V19.8A2.7,2.7,0,0,0,35.1,17.1Z" transform="translate(64.8 125.55)" fill="#4a4a4a"/>
  </g>
</svg>
