<svg xmlns="http://www.w3.org/2000/svg" viewBox="0 0 26.775 26.775">
  <g id="Group_16" data-name="Group 16" transform="translate(-2045 -1931)">
    <g id="calendar" transform="translate(2045 1931)">
      <path id="Path_35" data-name="Path 35" d="M23.124,0H3.651A3.656,3.656,0,0,0,0,3.651V23.124a3.656,3.656,0,0,0,3.651,3.651H23.124a3.657,3.657,0,0,0,3.651-3.651V3.651A3.656,3.656,0,0,0,23.124,0Zm2.434,23.124a2.442,2.442,0,0,1-2.434,2.434H3.651a2.442,2.442,0,0,1-2.434-2.434V3.651A2.442,2.442,0,0,1,3.651,1.217H23.124a2.442,2.442,0,0,1,2.434,2.434Z"/>
      <circle id="Ellipse_21" data-name="Ellipse 21" cx="1.033" cy="1.033" r="1.033" transform="translate(6.472 2.84)" />
      <circle id="Ellipse_23" data-name="Ellipse 23" cx="1.033" cy="1.033" r="1.033" transform="translate(18.237 2.84)" />
      <rect id="Rectangle_17" data-name="Rectangle 17" width="3.729" height="3.317" transform="translate(9.034 10.468)" />
      <rect id="Rectangle_18" data-name="Rectangle 18" width="3.728" height="3.317" transform="translate(14.013 10.468)" />
      <rect id="Rectangle_19" data-name="Rectangle 19" width="3.729" height="3.317" transform="translate(18.989 10.468)" />
      <rect id="Rectangle_20" data-name="Rectangle 20" width="3.728" height="3.315" transform="translate(4.057 14.896)" />
      <rect id="Rectangle_21" data-name="Rectangle 21" width="3.729" height="3.315" transform="translate(9.034 14.896)" />
      <rect id="Rectangle_22" data-name="Rectangle 22" width="3.728" height="3.315" transform="translate(14.013 14.896)" />
      <rect id="Rectangle_23" data-name="Rectangle 23" width="3.729" height="3.315" transform="translate(18.989 14.896)" />
      <rect id="Rectangle_24" data-name="Rectangle 24" width="3.728" height="3.315" transform="translate(4.057 19.323)" />
      <rect id="Rectangle_25" data-name="Rectangle 25" width="3.729" height="3.315" transform="translate(9.034 19.323)" />
      <rect id="Rectangle_26" data-name="Rectangle 26" width="3.728" height="3.315" transform="translate(14.013 19.323)" />
      <rect id="Rectangle_27" data-name="Rectangle 27" width="3.729" height="3.315" transform="translate(18.989 19.323)" />
    </g>
  </g>
</svg>
