<svg xmlns="http://www.w3.org/2000/svg"  viewBox="0 0 25.548 25.55">
  <path id="home" d="M24.861,11.113l0,0L14.437.689a2.352,2.352,0,0,0-3.327,0L.693,11.106l-.011.011a2.351,2.351,0,0,0,1.565,4.007q.036,0,.073,0h.415V22.8A2.756,2.756,0,0,0,5.489,25.55H9.566a.749.749,0,0,0,.749-.749V18.788a1.257,1.257,0,0,1,1.256-1.256h2.405a1.257,1.257,0,0,1,1.256,1.256V24.8a.748.748,0,0,0,.749.749h4.078A2.756,2.756,0,0,0,22.811,22.8v-7.67H23.2a2.352,2.352,0,0,0,1.665-4.014Zm0,0" transform="translate(0.001)"/>
</svg>
