<svg xmlns="http://www.w3.org/2000/svg"  viewBox="0 0 224 279.065">
  <path id="Path_32" data-name="Path 32" d="M177.323,0S115.359,53.862,131.6,159.309s29.158,120.627,68.257,119.719,40.042-41.559,72.246-27.963,80.782-34.8,80.782-34.8V0Z" transform="translate(-128.888)" fill="#aabb97" opacity="0.5"/>
  <path id="Path_1" data-name="Path 1" d="M853.833,259.673s-2.452,1.415-1.7,3.4a6.732,6.732,0,0,1,3.584,2.641c1.038,1.886,9.055,8.678,9.055,8.678l5.848-2.924s-2.034-2.716-8.469-4.612c0,0-3.793-4.066-5.114-4.82A27.879,27.879,0,0,1,853.833,259.673Z" transform="translate(-690.518 -131.327)" fill="#cbcdda"/>
  <path id="Path_2" data-name="Path 2" d="M853.833,259.673s-2.452,1.415-1.7,3.4a6.732,6.732,0,0,1,3.584,2.641c1.038,1.886,9.055,8.678,9.055,8.678l5.848-2.924s-2.034-2.716-8.469-4.612c0,0-3.793-4.066-5.114-4.82A27.879,27.879,0,0,1,853.833,259.673Z" transform="translate(-690.518 -131.327)" opacity="0.05"/>
  <path id="Path_3" data-name="Path 3" d="M290.431,783.706a15.41,15.41,0,0,1-3.873-.068c-1.3-.015-2.81.53-3.128,1.787-.427,1.689,1.548,2.962,3.238,3.383,6.561,1.633,13.507-.486,20.214.378,2.826.364,5.574,1.256,8.416,1.468,6.5.487,12.858-2.606,19.371-2.258,3.263.175,6.434,1.211,9.7,1.377,7.808.4,15.51-4.186,23.154-2.543,2.158.464,4.185,1.409,6.323,1.957,5.407,1.384,11.1.151,16.541-1.084,1.081-.245,2.384-.722,2.517-1.822.147-1.214-1.247-1.975-2.407-2.363-12.681-4.241-26.258-6.488-39.485-4.528a56.58,56.58,0,0,1-9.054,1.065c-6.734-.1-12.923-3.61-19.534-4.895-12.527-2.435-25.053,3.246-36.553,8.778" transform="translate(-211.904 -565.068)" fill="#030" opacity="0.1"/>
  <path id="Path_4" data-name="Path 4" d="M417.273,602.735h-3.835v32.423s24.753,8.019,48.809,0V602.735Z" transform="translate(-321.383 -420.086)" fill="#030" opacity="0.896"/>
  <ellipse id="Ellipse_1" data-name="Ellipse 1" cx="24.349" cy="3.661" rx="24.349" ry="3.661" transform="translate(92.055 179.163)" fill="#030"/>
  <path id="Path_5" data-name="Path 5" d="M563.586,119.187c-6.069,22.433-26.855,36.326-26.855,36.326s-10.947-22.478-4.879-44.911,26.855-36.326,26.855-36.326S569.655,96.754,563.586,119.187Z" transform="translate(-419.512 24.724)" fill="#030"/>
  <path id="Path_6" data-name="Path 6" d="M383.557,119.187c6.069,22.433,26.855,36.326,26.855,36.326s10.947-22.478,4.879-44.911-26.855-36.326-26.855-36.326S377.489,96.754,383.557,119.187Z" transform="translate(-294.689 24.724)" fill="#aabb97"/>
  <path id="Path_7" data-name="Path 7" d="M228.338,234.1c16.652,16.21,18.686,41.129,18.686,41.129s-24.965-1.363-41.617-17.573-18.686-41.129-18.686-41.129S211.686,217.888,228.338,234.1Z" transform="translate(-130.553 -95.008)" fill="#030"/>
  <path id="Path_8" data-name="Path 8" d="M586.375,234.1c-16.652,16.21-18.686,41.129-18.686,41.129s24.965-1.363,41.617-17.573,18.686-41.129,18.686-41.129S603.027,217.888,586.375,234.1Z" transform="translate(-451.217 -95.008)" fill="#030"/>
  <path id="Path_9" data-name="Path 9" d="M276.592,396.157a6.24,6.24,0,0,0,2.433,3.174,5.322,5.322,0,0,0-1.969-7.146A6.24,6.24,0,0,0,276.592,396.157Z" transform="translate(-206.063 -242.863)" fill="#75a478"/>
  <path id="Path_10" data-name="Path 10" d="M340.756,470.112a6.24,6.24,0,0,0,.38,3.981,5.323,5.323,0,0,0,2.12-7.1A6.24,6.24,0,0,0,340.756,470.112Z" transform="translate(-260.047 -305.828)" fill="#75a478"/>
  <path id="Path_11" data-name="Path 11" d="M797.475,558a6.24,6.24,0,0,0-1.531,3.695,5.323,5.323,0,0,0,5.2-5.28A6.241,6.241,0,0,0,797.475,558Z" transform="translate(-643.342 -381.096)" fill="#75a478"/>
  <path id="Path_12" data-name="Path 12" d="M941.605,767.971s.283,4.15.754,4.622-4.245.755-4.245.755l.66-5.376Z" transform="translate(-763.009 -559.167)" fill="#ffb9b9"/>
  <path id="Path_13" data-name="Path 13" d="M941.605,767.971s.283,4.15.754,4.622-4.245.755-4.245.755l.66-5.376Z" transform="translate(-763.009 -559.167)" opacity="0.05"/>
  <path id="Path_14" data-name="Path 14" d="M906.536,781.209a9.054,9.054,0,0,0-3.018,1.226,3.276,3.276,0,0,1-2.264-2.547s-1.981,3.4-3.3,3.584-3.867.377-2.169,2.641,11.7,1.226,11.7,1.226S907.762,781.87,906.536,781.209Z" transform="translate(-726.903 -569.198)" fill="#cbcdda"/>
  <path id="Path_15" data-name="Path 15" d="M906.536,781.209a9.054,9.054,0,0,0-3.018,1.226,3.276,3.276,0,0,1-2.264-2.547s-1.981,3.4-3.3,3.584-3.867.377-2.169,2.641,11.7,1.226,11.7,1.226S907.762,781.87,906.536,781.209Z" transform="translate(-726.903 -569.198)" opacity="0.05"/>
  <path id="Path_16" data-name="Path 16" d="M931.2,790.235l-.66,1.792L926.2,790.8l.247-1.779.059-.429.165-1.187s3.679-.943,3.679-.472a7.335,7.335,0,0,0,.242,1.149c.151.58.341,1.241.468,1.676C931.14,790.046,931.2,790.235,931.2,790.235Z" transform="translate(-752.978 -575.016)" fill="#ffb9b9"/>
  <path id="Path_17" data-name="Path 17" d="M915.939,534.612a2.577,2.577,0,0,0-.008,2.625,4.558,4.558,0,0,0,.678.94c2.075,2.264,2.641,7.357,2.641,7.357v8.206l-1.415.109-2.264.174-3.4-13.96s-1.981-10.187-1.037-11.979,1.792-13.017,1.792-13.017l.783-.811,1.858-1.924h5.376a3.614,3.614,0,0,1,1.046,1.17c.9,1.494,1.713,4.6-.763,10.338-3.867,8.961-5,10.376-5,10.376A2.169,2.169,0,0,0,915.939,534.612Z" transform="translate(-740.088 -343.993)" fill="#4f534c" opacity="0.971"/>
  <path id="Path_19" data-name="Path 19" d="M932.219,788.082l-4.085.51.165-1.187s3.679-.943,3.679-.472A7.321,7.321,0,0,0,932.219,788.082Z" transform="translate(-754.608 -575.016)" opacity="0.1"/>
  <path id="Path_20" data-name="Path 20" d="M887.536,515.007s.235,7.425.274,12.092c.008,1.055.008,1.97-.009,2.625a5.806,5.806,0,0,1-.077,1.035,6.577,6.577,0,0,0,.283,2.735,27.224,27.224,0,0,1,1.7,11.7v4.15l-4.527.566s.755-.566-1.321-6.037a23.846,23.846,0,0,1-1.454-8.275,8.853,8.853,0,0,0-.662-3.274,4.04,4.04,0,0,1-.241-1.09,21.6,21.6,0,0,0-1.038-4.245,70.411,70.411,0,0,1-2.83-11.6,27.018,27.018,0,0,1,.131-7.017,17.541,17.541,0,0,1,.341-1.755s9.221-5.8,12.7-1.792a4.544,4.544,0,0,1,.786,1.32,8.707,8.707,0,0,1,.445,1.47C893.121,512.933,887.536,515.007,887.536,515.007Z" transform="translate(-711.959 -336.48)" fill="#4f534c"/>
  <circle id="Ellipse_4" data-name="Ellipse 4" cx="4.811" cy="4.811" r="4.811" transform="translate(170.484 127.592)" fill="#ffb9b9"/>
  <path id="Path_21" data-name="Path 21" d="M921,288.761s1.981,5.565,0,8.489,6.32,1.981,6.32,1.981l3.207-3.867s-3.773,0-3.962-6.6S921,288.761,921,288.761Z" transform="translate(-748.344 -153.34)" fill="#ffb9b9"/>
  <path id="Path_22" data-name="Path 22" d="M895.729,507.084a12.375,12.375,0,0,1-2.1.526,4.288,4.288,0,0,1-3.369-.526c-.48-.424-1.663-.475-3.084-.34a52.924,52.924,0,0,0-7.82,1.623,17.506,17.506,0,0,1,.341-1.755s9.221-5.8,12.7-1.792h2.012a3.613,3.613,0,0,1,1.046,1.17C895.629,506.74,895.729,507.084,895.729,507.084Z" transform="translate(-713.549 -336.48)" opacity="0.1"/>
  <path id="Path_23" data-name="Path 23" d="M931.2,802.042l-.66,1.792-4.339-1.226.247-1.779a3.055,3.055,0,0,0,2.017,1.873,15.386,15.386,0,0,1,2.6-1.137C931.14,801.853,931.2,802.042,931.2,802.042Z" transform="translate(-752.978 -586.823)" opacity="0.1"/>
  <path id="Path_24" data-name="Path 24" d="M899.385,798.49a9.055,9.055,0,0,0-3.018,1.226,3.276,3.276,0,0,1-2.264-2.547s-1.981,3.4-3.3,3.584-3.867.377-2.169,2.641,11.7,1.226,11.7,1.226S900.612,799.151,899.385,798.49Z" transform="translate(-720.884 -583.744)" fill="#cbcdda"/>
  <path id="Path_25" data-name="Path 25" d="M818.194,273.362a3.489,3.489,0,0,1,4.045-3.314.66.66,0,0,1,.521.966l-.792,1.49Z" transform="translate(-662.07 -140.038)" fill="#ffb9b9"/>
  <path id="Path_26" data-name="Path 26" d="M840.6,291.676s-4.622-.755-5.848-1.7a1.908,1.908,0,0,1-2.641.849c-1.7-.943-5.659-.849-5.659-.849a8.555,8.555,0,0,1-3.962-5.848,11.374,11.374,0,0,1-.472-3.113s-2.452-2.547-3.679.849c.472,2.358.849,2.169.755,4.056l1.509,4.15s.094,1.415,2.83,3.3a60.812,60.812,0,0,1,5.848,4.811s-1.651.9-1.038,5c.749,5.015-.377,12.168-.377,12.168v4.622s9.432-2.735,11.036-1.321,5.471,0,5.471,0a54.963,54.963,0,0,1-1.132-5.471,23.725,23.725,0,0,1,.094-7.64s2.452-6.508,3.584-9.149-.849-6.225-2.83-7.546-2.719-.528-2.719-.528S844.845,290.827,840.6,291.676Z" transform="translate(-662.194 -148.521)" fill="#dcedc8"/>
  <path id="Path_27" data-name="Path 27" d="M896.1,245.967a1.664,1.664,0,0,0,.1.576,1.815,1.815,0,0,0,.442.55,5.5,5.5,0,0,1,1.575,2.466,7.46,7.46,0,0,1,.149,1.994c-.041,2.708-.154,5.631-1.827,7.762a16.915,16.915,0,0,1-2.148,2.068.649.649,0,0,0-.226.3.566.566,0,0,0,.07.373,4.035,4.035,0,0,0,1.76,1.556A2.227,2.227,0,0,0,897,264c.858.028,1.424-.878,2.205-1.235,1.136-.519,2.411.2,3.539.74a12.469,12.469,0,0,0,2.555.891,4.518,4.518,0,0,0,3.589-.362,2.741,2.741,0,0,0,1.118-1.749c.082-.461.069-1,.418-1.308.18-.161.425-.227.62-.37a1.927,1.927,0,0,0,.574-.944l1.162-3.177a2.611,2.611,0,0,0,.227-1.067,2.135,2.135,0,0,0-1.47-1.614,10.075,10.075,0,0,1-2.115-.887,4.526,4.526,0,0,1-1.473-3.464,16.66,16.66,0,0,1,.019-2.668c.115-1.316.372-2.717-.213-3.9-.625-1.265-2.028-1.91-3.326-2.461a3.425,3.425,0,0,0-3.224-.1,25.6,25.6,0,0,1-2.622.887,11.551,11.551,0,0,0-1.528.209C895.289,242.083,896.1,244.543,896.1,245.967Z" transform="translate(-726.01 -114.741)" opacity="0.1"/>
  <path id="Path_28" data-name="Path 28" d="M896.1,244.775a1.67,1.67,0,0,0,.1.576,1.817,1.817,0,0,0,.442.55,5.5,5.5,0,0,1,1.575,2.466,7.456,7.456,0,0,1,.149,1.994c-.041,2.708-.155,5.632-1.827,7.762a16.911,16.911,0,0,1-2.148,2.068.648.648,0,0,0-.226.3.566.566,0,0,0,.07.373,4.035,4.035,0,0,0,1.76,1.556A2.228,2.228,0,0,0,897,262.8c.858.028,1.424-.878,2.205-1.235,1.136-.519,2.411.2,3.539.74a12.469,12.469,0,0,0,2.555.891,4.518,4.518,0,0,0,3.589-.362,2.74,2.74,0,0,0,1.118-1.749c.082-.461.069-1,.418-1.308.18-.161.425-.227.62-.37a1.926,1.926,0,0,0,.574-.944l1.162-3.177a2.611,2.611,0,0,0,.227-1.067,2.135,2.135,0,0,0-1.47-1.614,10.071,10.071,0,0,1-2.115-.887,4.526,4.526,0,0,1-1.473-3.464,16.681,16.681,0,0,1,.019-2.668c.115-1.316.372-2.717-.213-3.9-.625-1.265-2.028-1.91-3.326-2.461a3.425,3.425,0,0,0-3.224-.1,25.6,25.6,0,0,1-2.622.887,11.559,11.559,0,0,0-1.528.209C895.289,240.891,896.1,243.351,896.1,244.775Z" transform="translate(-726.01 -113.738)" fill="#895757"/>
  <path id="Path_29" data-name="Path 29" d="M882.412,434.567s.753-.182,4.525-.748,10.376.755,10.376.755" transform="translate(-716.124 -277.788)" opacity="0.05"/>
  <path id="Path_30" data-name="Path 30" d="M226.592,516.157a6.241,6.241,0,0,0,2.433,3.174,5.323,5.323,0,0,0-1.969-7.146A6.24,6.24,0,0,0,226.592,516.157Z" transform="translate(-163.977 -343.868)" fill="#75a478"/>
</svg>

