<svg xmlns="http://www.w3.org/2000/svg" viewBox="0 0 26.775 26.775">
  <g id="Group_13" data-name="Group 13" transform="translate(-72.326 -768.899)">
    <path id="square" d="M10.433,0H2.342A2.345,2.345,0,0,0,0,2.342v8.092a2.344,2.344,0,0,0,2.342,2.342h8.091a2.345,2.345,0,0,0,2.342-2.342V2.342A2.345,2.345,0,0,0,10.433,0Z" transform="translate(72.326 768.899)" />
    <path id="square-2" data-name="square" d="M10.433,0H2.342A2.345,2.345,0,0,0,0,2.342v8.092a2.344,2.344,0,0,0,2.342,2.342h8.091a2.345,2.345,0,0,0,2.342-2.342V2.342A2.345,2.345,0,0,0,10.433,0Z" transform="translate(86.326 768.899)" />
    <path id="square-3" data-name="square" d="M10.433,0H2.342A2.345,2.345,0,0,0,0,2.342v8.092a2.344,2.344,0,0,0,2.342,2.342h8.091a2.345,2.345,0,0,0,2.342-2.342V2.342A2.345,2.345,0,0,0,10.433,0Z" transform="translate(72.326 782.899)" />
    <path id="square_1_" data-name="square(1)" d="M10.516,0H2.361A2.363,2.363,0,0,0,0,2.361v8.156a2.363,2.363,0,0,0,2.361,2.36h8.156a2.363,2.363,0,0,0,2.361-2.361V2.361A2.363,2.363,0,0,0,10.516,0Zm1.931,10.516a1.933,1.933,0,0,1-1.931,1.931H2.361A1.933,1.933,0,0,1,.429,10.516V2.361A1.933,1.933,0,0,1,2.361.429h8.156a1.933,1.933,0,0,1,1.931,1.931Z" transform="translate(86 782.797)" />
  </g>
</svg>
