<?xml version="1.0" encoding="utf-8"?>
<!-- Generator: Adobe Illustrator 19.0.0, SVG Export Plug-In . SVG Version: 6.00 Build 0)  -->
<svg version="1.1" id="Ebene_1" xmlns="http://www.w3.org/2000/svg" xmlns:xlink="http://www.w3.org/1999/xlink" x="0px" y="0px"
	 viewBox="0 0 242.2 229.6" style="enable-background:new 0 0 242.2 229.6;" xml:space="preserve">
<style type="text/css">
	.st0{fill:#AABB97;}
</style>
<path class="st0" d="M114.2,169.2c0,0,3.1-43.5-4.7-47.4c0,0-37.2-4.7-38.4-30.6c0,0,43.8-7.1,43.7,28.2c0,0-9.2-19.2-23.7-20.4
	c0,0,22.7,12.9,26.3,32.9c0,0,14.5-43.9,33.7-48.6c0,0-16.9-2.4-33.3,37.2c0,0-8.6-57.2,61.1-53.3c0,0,10.6,38.8-55.7,55.7
	c0,0-6.3,36.1-3.9,46.2C119.3,169.2,116.9,170.8,114.2,169.2z"/>
</svg>
